<svg id="comment" viewBox="0 0 23.571 20.204">
    <g transform="translate(0 -36.549)">
        <path class="a"
              d="M21.993,40.738A10.661,10.661,0,0,0,17.7,37.674a15.29,15.29,0,0,0-5.919-1.125,15.29,15.29,0,0,0-5.919,1.125,10.659,10.659,0,0,0-4.288,3.065A6.56,6.56,0,0,0,0,44.967a6.382,6.382,0,0,0,1.19,3.7,9.657,9.657,0,0,0,3.256,2.894,8.4,8.4,0,0,1-.342,1q-.2.473-.355.776A5.339,5.339,0,0,1,3.321,54q-.269.368-.408.52l-.454.5q-.315.348-.408.454a.924.924,0,0,0-.105.119l-.092.111-.079.118c-.044.065-.064.107-.059.125a.349.349,0,0,1-.026.131.173.173,0,0,0,.007.158v.013a.67.67,0,0,0,.21.362.527.527,0,0,0,.355.138h.066a9.919,9.919,0,0,0,1.5-.289A14.374,14.374,0,0,0,9.878,53.28a17.985,17.985,0,0,0,1.907.105A15.286,15.286,0,0,0,17.7,52.26,10.661,10.661,0,0,0,21.993,49.2a6.454,6.454,0,0,0,0-8.458Zm-1.48,7.583a9.447,9.447,0,0,1-3.71,2.466,13.646,13.646,0,0,1-5.018.914,14.851,14.851,0,0,1-1.71-.105l-.75-.079-.566.5a12.969,12.969,0,0,1-3.617,2.249A9.437,9.437,0,0,0,6.064,52l.355-1.263-1.144-.657a8.022,8.022,0,0,1-2.65-2.309,4.8,4.8,0,0,1-.94-2.808,4.971,4.971,0,0,1,1.374-3.354,9.446,9.446,0,0,1,3.709-2.466,13.64,13.64,0,0,1,5.018-.914,13.639,13.639,0,0,1,5.018.914,9.449,9.449,0,0,1,3.71,2.466,4.78,4.78,0,0,1,0,6.708Z"
              transform="translate(0 0)"/>
    </g>
</svg>