<svg id="notify_error" viewBox="0 0 39.757 36.876">
    <g transform="translate(0 -18.558)">
        <path class="a" d="M39.38,51.245l-17.019-31.2a2.827,2.827,0,0,0-1.042-1.086,2.8,2.8,0,0,0-2.881,0A2.829,2.829,0,0,0,17.4,20.043L.377,51.245a2.644,2.644,0,0,0,.044,2.793,2.838,2.838,0,0,0,2.438,1.4H36.9a2.838,2.838,0,0,0,2.438-1.4A2.643,2.643,0,0,0,39.38,51.245ZM22.716,49.029a.709.709,0,0,1-.21.52.68.68,0,0,1-.5.21H17.752a.68.68,0,0,1-.5-.21.706.706,0,0,1-.211-.52V44.819a.707.707,0,0,1,.211-.52.68.68,0,0,1,.5-.21h4.254a.681.681,0,0,1,.5.21.708.708,0,0,1,.21.52v4.211Zm-.044-8.288a.5.5,0,0,1-.233.366.9.9,0,0,1-.521.144h-4.1a.956.956,0,0,1-.532-.144.426.426,0,0,1-.222-.366l-.377-10.127a.53.53,0,0,1,.222-.465.856.856,0,0,1,.532-.244h4.875a.854.854,0,0,1,.532.244.488.488,0,0,1,.221.421Z" transform="translate(0)"/>
    </g>
</svg>