<svg id="notify_success" viewBox="0 0 34.732 34.732">
    <g transform="translate(0)">
        <path class="a" d="M32.4,8.649a17.293,17.293,0,0,0-6.32-6.32A16.987,16.987,0,0,0,17.367,0,16.987,16.987,0,0,0,8.649,2.329a17.289,17.289,0,0,0-6.32,6.32A16.986,16.986,0,0,0,0,17.366a16.99,16.99,0,0,0,2.329,8.717,17.293,17.293,0,0,0,6.32,6.32,16.989,16.989,0,0,0,8.717,2.329A16.989,16.989,0,0,0,26.083,32.4a17.289,17.289,0,0,0,6.32-6.32,16.99,16.99,0,0,0,2.329-8.717A16.991,16.991,0,0,0,32.4,8.649ZM28.627,14.72,16.349,27a1.416,1.416,0,0,1-1.04.43A1.39,1.39,0,0,1,14.291,27L6.105,18.813A1.381,1.381,0,0,1,5.7,17.8a1.409,1.409,0,0,1,.407-1.04L8.163,14.72a1.42,1.42,0,0,1,2.035,0l5.11,5.11,9.226-9.2a1.419,1.419,0,0,1,2.035,0l2.058,2.035a1.406,1.406,0,0,1,.407,1.04A1.378,1.378,0,0,1,28.627,14.72Z" transform="translate(0 0)"/>
    </g>
</svg>