<svg id="notify_info" xmlns="http://www.w3.org/2000/svg" viewBox="0 0 35.133 35.133">
    <g transform="translate(-0.001)">
        <g transform="translate(0.001)">
            <path class="a" d="M17.567,0A17.567,17.567,0,1,0,35.134,17.566,17.567,17.567,0,0,0,17.567,0Zm0,27.281A2.283,2.283,0,0,1,15.284,25h4.567A2.283,2.283,0,0,1,17.567,27.281Zm7.716-4.573h0c0,.844-.684.9-1.528.9H11.379c-.844,0-1.528-.056-1.528-.9v-.145a1.525,1.525,0,0,1,.869-1.374L11.206,17a6.364,6.364,0,0,1,5.054-6.227V9.149a1.309,1.309,0,0,1,2.617,0v1.626A6.364,6.364,0,0,1,23.93,17l.485,4.188a1.524,1.524,0,0,1,.869,1.373Z" transform="translate(-0.001)"/>
        </g>
    </g>
</svg>