<svg id="sign_in" viewBox="0 0 24.516 21.452">
    <g transform="translate(0 -38.25)">
        <g transform="translate(0 38.25)">
            <g transform="translate(0 0)">
                <path class="a" d="M13.287,53.758a.766.766,0,0,0,1.083,1.083l5.286-5.286a.884.884,0,0,0,0-1.16L14.37,43.11a.766.766,0,0,0-1.083,1.083L17.3,48.21H.766a.766.766,0,0,0,0,1.532H17.3ZM21.452,38.25H6.129a3.065,3.065,0,0,0-3.065,3.065v3.065H4.6V41.315a1.532,1.532,0,0,1,1.532-1.532H21.452a1.532,1.532,0,0,1,1.532,1.532V56.637a1.532,1.532,0,0,1-1.532,1.532H6.129A1.532,1.532,0,0,1,4.6,56.637V53.573H3.065v3.065A3.065,3.065,0,0,0,6.129,59.7H21.452a3.065,3.065,0,0,0,3.065-3.065V41.315A3.065,3.065,0,0,0,21.452,38.25Z" transform="translate(0 -38.25)"/>
            </g>
        </g>
    </g>
</svg>