<svg id="email" xmlns="http://www.w3.org/2000/svg" viewBox="0 0 20.635 14.739">
    <g transform="translate(0 -2)">
        <g transform="translate(0 2)">
            <path class="a" d="M10.168,9.718,7.615,7.484l-7.3,6.257a1.494,1.494,0,0,0,1.018.4H19a1.483,1.483,0,0,0,1.014-.4L12.72,7.484Z" transform="translate(0.15 0.599)"/>
            <path class="a" d="M20.018,2.4A1.484,1.484,0,0,0,19,2H1.334a1.478,1.478,0,0,0-1.016.4l9.849,8.441Z" transform="translate(0.151 -2)"/>
            <path class="a" d="M0,2.878V15.123L7.123,9.07Z" transform="translate(0 -1.584)"/>
            <path class="a" d="M9.167,9.071l7.123,6.053V2.875Z" transform="translate(4.344 -1.585)"/>
        </g>
    </g>
</svg>