<svg id="notify_warning" xmlns="http://www.w3.org/2000/svg" viewBox="0 0 34.625 34.625">
    <g transform="translate(-0.001 0)">
        <path class="a" d="M17.082,0A17.313,17.313,0,1,0,34.624,17.08,17.314,17.314,0,0,0,17.082,0Zm-.051,27.849-.1,0a2.52,2.52,0,0,1,.059-5.039l.085,0a2.52,2.52,0,1,1-.049,5.039Zm6.193-12.292a11.446,11.446,0,0,1-2.067,1.85l-1.056.729a2.872,2.872,0,0,0-1.061,1.292,2.675,2.675,0,0,0-.163,1.084l0,.17H14.84l.012-.341c.049-1.4.084-2.228.665-2.91a17.131,17.131,0,0,1,3.01-2.422,3.177,3.177,0,0,0,.712-.729,2.564,2.564,0,0,0,.611-1.495,2.913,2.913,0,0,0-.554-1.722,2.306,2.306,0,0,0-2-.75,2.176,2.176,0,0,0-2.017.933,3.745,3.745,0,0,0-.611,2.014v.172H10.515l.008-.18c.107-2.548,1.017-4.382,2.7-5.452a7.115,7.115,0,0,1,3.913-1.027,8.447,8.447,0,0,1,5.048,1.453,5.04,5.04,0,0,1,2.042,4.349A4.976,4.976,0,0,1,23.224,15.559Z" transform="translate(0 0)"/>
    </g>
</svg>